<?xml version="1.0" encoding="UTF-8" standalone="no"?>
<svg width="381px" height="62px" viewBox="0 0 381 62" version="1.1" xmlns="http://www.w3.org/2000/svg" xmlns:xlink="http://www.w3.org/1999/xlink" xmlns:sketch="http://www.bohemiancoding.com/sketch/ns">
    <!-- Generator: Sketch 3.4.4 (17249) - http://www.bohemiancoding.com/sketch -->
    <title>GOTHAM</title>
    <desc>Created with Sketch.</desc>
    <defs></defs>
    <g id="Page-1" stroke="none" stroke-width="1" fill="none" fill-rule="evenodd" sketch:type="MSPage">
        <path d="M31.777,61.162 C42.318,61.162 50.867,57.261 57.009,52.198 L57.009,26.053 L30.283,26.053 L30.283,37.839 L41.737,37.839 L41.737,44.894 C39.33,46.471 36.342,47.301 32.441,47.301 C23.228,47.301 16.671,40.578 16.671,31.199 L16.671,31.033 C16.671,22.152 23.145,15.097 31.528,15.097 C37.255,15.097 41.405,17.089 45.555,20.575 L55.017,9.204 C48.875,3.892 41.654,0.738 31.445,0.738 C13.434,0.738 0.154,14.018 0.154,30.95 L0.154,31.116 C0.154,48.712 13.683,61.162 31.777,61.162 L31.777,61.162 Z M95.189,61.162 C113.117,61.162 126.563,47.633 126.563,30.95 L126.563,30.784 C126.563,14.101 113.283,0.738 95.355,0.738 C77.427,0.738 63.981,14.267 63.981,30.95 L63.981,31.116 C63.981,47.799 77.261,61.162 95.189,61.162 L95.189,61.162 Z M95.355,46.637 C86.557,46.637 80.498,39.333 80.498,30.95 L80.498,30.784 C80.498,22.401 86.391,15.263 95.189,15.263 C104.07,15.263 110.129,22.567 110.129,30.95 L110.129,31.116 C110.129,39.499 104.236,46.637 95.355,46.637 L95.355,46.637 Z M149.139,60 L165.241,60 L165.241,16.01 L182.671,16.01 L182.671,1.9 L131.709,1.9 L131.709,16.01 L149.139,16.01 L149.139,60 Z M189.726,60 L205.828,60 L205.828,37.922 L226.495,37.922 L226.495,60 L242.597,60 L242.597,1.9 L226.495,1.9 L226.495,23.646 L205.828,23.646 L205.828,1.9 L189.726,1.9 L189.726,60 Z M248.241,60 L265.173,60 L269.323,49.625 L291.733,49.625 L295.966,60 L313.23,60 L288.496,1.485 L272.975,1.485 L248.241,60 Z M274.054,37.092 L280.611,20.575 L287.085,37.092 L274.054,37.092 Z M318.874,60 L334.644,60 L334.644,26.8 L349.418,49.376 L349.75,49.376 L364.607,26.634 L364.607,60 L380.626,60 L380.626,1.9 L363.611,1.9 L349.75,24.393 L335.889,1.9 L318.874,1.9 L318.874,60 Z" id="GOTHAM" fill="#5A5A5A" sketch:type="MSShapeGroup"></path>
    </g>
</svg>